#!OML:ASF E:\Steps\Project 1\Capture day 1\Session 2\Subject.ASF
:FULLY-SPECIFIED
:DEGREES
455
root 8.9235 16.2106 23.0126 -153.642 -0.109101 178.092
lowerback -31.2679 -1.78648 -5.70001
upperback -2.79474 -1.36405 -0.354572
thorax 13.2432 -1.34979 2.05497
lowerneck 2.09084 -3.44024 -2.86964
upperneck -12.0729 -3.55619 6.73914
head -4.17377 -1.70327 2.93236
rclavicle 1.14301e-015 1.15295e-014
rhumerus -37.3016 -21.6422 -76.5578
rradius 25.5736
rwrist 4.13648
rhand -6.99683 -52.9185
rfingers 7.12502
rthumb 18.8739 277.977
lclavicle 1.14301e-015 1.15295e-014
lhumerus -33.5401 16.3207 76.021
lradius 11.7836
lwrist -20.041
lhand -20.6587 -10.8674
lfingers 7.12502
lthumb 5.70391 19.0358
rfemur -21.4381 8.14078 17.8421
rtibia 11.7607
rfoot -24.1783 -8.59344
rtoes -19.2052
lfemur -22.1581 -10.5974 -20.8228
ltibia 12.3164
lfoot -12.3093 1.41745
ltoes -31.1258
456
root 8.92485 16.2092 23.0072 -153.7 -0.175962 178.06
lowerback -31.2812 -1.81513 -5.71006
upperback -2.76386 -1.38949 -0.356822
thorax 13.2865 -1.36053 2.04745
lowerneck 2.05896 -3.43076 -2.85541
upperneck -12.0707 -3.54725 6.68887
head -4.16798 -1.69672 2.91076
rclavicle -2.83268e-015 2.38542e-015
rhumerus -37.3614 -21.7485 -76.4745
rradius 25.5786
rwrist 4.21058
rhand -7.16895 -53.0666
rfingers 7.12502
rthumb 18.7083 277.813
lclavicle -2.83268e-015 2.38542e-015
lhumerus -33.5009 15.7512 76.32
lradius 11.964
lwrist -19.404
lhand -20.4789 -10.9538
lfingers 7.12502
lthumb 5.8775 18.9447
rfemur -21.2694 8.00889 17.8578
rtibia 11.6361
rfoot -24.1558 -8.53795
rtoes -19.1726
lfemur -22.0586 -10.5849 -20.8764
ltibia 12.3095
lfoot -12.4103 1.35532
ltoes -32.0075
457
root 8.92579 16.2068 23.0043 -153.679 -0.225563 178.053
lowerback -31.3696 -1.81058 -5.66607
upperback -2.73088 -1.38706 -0.371937
thorax 13.3616 -1.35761 2.00576
lowerneck 2.04024 -3.4454 -2.86764
upperneck -12.1048 -3.56296 6.68619
head -4.17542 -1.70218 2.91303
rclavicle 9.93923e-016 -1.59028e-015
rhumerus -37.3525 -21.883 -76.4213
rradius 25.5649
rwrist 4.32904
rhand -7.33958 -53.2978
rfingers 7.12502
rthumb 18.5442 277.566
lclavicle 9.93923e-016 -1.59028e-015
lhumerus -33.416 15.1823 76.6406
lradius 12.1355
lwrist -18.9064
lhand -20.5331 -11.0276
lfingers 7.12502
lthumb 5.82513 18.8723
rfemur -21.2586 7.8632 17.885
rtibia 11.6008
rfoot -24.1761 -8.52637
rtoes -19.784
lfemur -22.0518 -10.5988 -20.8819
ltibia 12.258
lfoot -12.324 1.47102
ltoes -33.6313
458
root 8.92782 16.2073 23.0051 -153.676 -0.306215 177.99
lowerback -31.3435 -1.82144 -5.7195
upperback -2.72733 -1.37943 -0.39152
thorax 13.3535 -1.35571 2.01712
lowerneck 2.082 -3.54266 -2.83985
upperneck -12.5674 -3.62437 6.9928
head -3.88703 -1.76987 2.72547
rclavicle 1.98785e-015 1.39149e-014
rhumerus -37.3556 -21.9481 -76.3797
rradius 25.545
rwrist 4.30439
rhand -7.54635 -53.6856
rfingers 7.12502
rthumb 18.3453 277.16
lclavicle 1.98785e-015 1.39149e-014
lhumerus -33.3322 14.5256 77.0193
lradius 12.2923
lwrist -18.3482
lhand -20.6396 -11.1448
lfingers 7.12502
lthumb 5.72235 18.7579
rfemur -21.2282 7.90675 17.8151
rtibia 11.5625
rfoot -24.2122 -8.50928
rtoes -19.3545
lfemur -22.0587 -10.6295 -20.9324
ltibia 12.25
lfoot -12.228 1.41028
ltoes -33.7142
459
root 8.92909 16.2069 23.0039 -153.651 -0.391066 177.956
lowerback -31.3553 -1.8742 -5.7616
upperback -2.70842 -1.43327 -0.345516
thorax 13.3863 -1.38192 2.06774
lowerneck 2.0935 -3.57057 -2.87573
upperneck -12.6599 -3.65327 7.00512
head -3.91427 -1.78156 2.73781
rclavicle -5.29264e-015 1.19271e-015
rhumerus -37.2314 -22.0334 -76.2771
rradius 25.4129
rwrist 4.43217
rhand -7.67754 -53.6786
rfingers 7.12502
rthumb 18.2191 277.155
lclavicle -5.29264e-015 1.19271e-015
lhumerus -33.2412 14.1237 77.3502
lradius 12.4164
lwrist -17.8946
lhand -20.8486 -11.3364
lfingers 7.12502
lthumb 5.52048 18.5717
rfemur -21.2054 7.90974 17.7827
rtibia 11.5047
rfoot -24.203 -8.40855
rtoes -18.5067
lfemur -22.084 -10.6471 -20.9473
ltibia 12.2683
lfoot -12.3098 1.23947
ltoes -33.1303
460
root 8.93098 16.2048 23.0032 -153.568 -0.453044 177.994
lowerback -31.4616 -1.86617 -5.70789
upperback -2.70429 -1.43805 -0.344061
thorax 13.4368 -1.38364 2.03527
lowerneck 2.07995 -3.5784 -2.86915
upperneck -12.6482 -3.66712 6.98234
head -3.90845 -1.78752 2.72975
rclavicle -6.4605e-015 -1.59028e-014
rhumerus -37.1968 -22.3618 -76.1151
rradius 25.2718
rwrist 4.81392
rhand -7.47261 -53.2841
rfingers 7.12502
rthumb 18.4162 277.568
lclavicle -6.4605e-015 -1.59028e-014
lhumerus -33.1254 14.0018 77.4225
lradius 12.4675
lwrist -17.8892
lhand -20.9474 -11.3517
lfingers 7.12502
lthumb 5.4251 18.5589
rfemur -21.2915 7.82908 17.8537
rtibia 11.5146
rfoot -24.2498 -8.42407
rtoes -18.7236
lfemur -22.1742 -10.6629 -20.8584
ltibia 12.2532
lfoot -12.3577 1.12844
ltoes -32.3084
461
root 8.93305 16.2038 23.0046 -153.533 -0.448554 178.039
lowerback -31.5089 -1.8386 -5.64034
upperback -2.69327 -1.42079 -0.354259
thorax 13.4678 -1.37275 1.99346
lowerneck 2.12331 -3.61998 -2.86057
upperneck -12.7661 -3.70639 7.01594
head -3.94865 -1.80723 2.74273
rclavicle 2.16178e-015 2.06736e-014
rhumerus -37.2246 -22.4315 -76.0839
rradius 25.3152
rwrist 4.97358
rhand -7.23836 -53.2776
rfingers 7.12502
rthumb 18.6416 277.596
lclavicle 2.16178e-015 2.06736e-014
lhumerus -32.9831 14.0456 77.4309
lradius 12.5491
lwrist -18.0172
lhand -20.9167 -11.0309
lfingers 7.12502
lthumb 5.45475 18.8789
rfemur -21.3606 7.88211 17.9014
rtibia 11.552
rfoot -24.2466 -8.48545
rtoes -18.1942
lfemur -22.2328 -10.6702 -20.7827
ltibia 12.2542
lfoot -12.2871 1.13844
ltoes -31.7643
462
root 8.93437 16.203 23.0053 -153.544 -0.435702 178.039
lowerback -31.4704 -1.84922 -5.65424
upperback -2.71387 -1.43871 -0.32513
thorax 13.4299 -1.3818 2.02651
lowerneck 2.12416 -3.59725 -2.89826
upperneck -12.7434 -3.68467 6.99493
head -3.94273 -1.79495 2.74145
rclavicle -1.43125e-014 -7.15625e-015
rhumerus -37.2987 -22.3042 -76.0445
rradius 25.4241
rwrist 4.89926
rhand -7.10326 -53.473
rfingers 7.12502
rthumb 18.7715 277.413
lclavicle -1.43125e-014 -7.15625e-015
lhumerus -32.9492 13.9782 77.5621
lradius 12.7005
lwrist -17.9077
lhand -20.9103 -10.7016
lfingers 7.12502
lthumb 5.461 19.2081
rfemur -21.3595 7.9544 17.8903
rtibia 11.5676
rfoot -24.2731 -8.46607
rtoes -17.2984
lfemur -22.2418 -10.6272 -20.8028
ltibia 12.3086
lfoot -12.273 1.17146
ltoes -32.5525
463
root 8.93614 16.2033 23.006 -153.544 -0.469222 178.022
lowerback -31.4145 -1.87637 -5.69894
upperback -2.75086 -1.47324 -0.278821
thorax 13.3678 -1.4003 2.08863
lowerneck 2.07674 -3.54937 -2.97102
upperneck -12.5981 -3.64604 6.95675
head -3.89225 -1.77354 2.73716
rclavicle 9.41742e-015 1.15295e-014
rhumerus -37.3613 -22.1871 -75.953
rradius 25.4948
rwrist 4.68026
rhand -6.94296 -53.3313
rfingers 7.12502
rthumb 18.9257 277.569
lclavicle 9.41742e-015 1.15295e-014
lhumerus -32.9019 13.9827 77.673
lradius 12.777
lwrist -17.857
lhand -20.8469 -10.6742
lfingers 7.12502
lthumb 5.52219 19.2338
rfemur -21.3492 7.95338 17.8776
rtibia 11.5611
rfoot -24.3717 -8.47691
rtoes -17.1524
lfemur -22.2491 -10.6284 -20.8109
ltibia 12.3282
lfoot -12.2303 1.23456
ltoes -32.8518
464
root 8.93803 16.2048 23.0056 -153.557 -0.495177 178.035
lowerback -31.4161 -1.87457 -5.67733
upperback -2.73865 -1.47663 -0.263213
thorax 13.3834 -1.40007 2.09263
lowerneck 2.04401 -3.54563 -3.02666
upperneck -12.5321 -3.65133 6.95918
head -3.86531 -1.77456 2.74548
rclavicle 9.54166e-015 1.74931e-014
rhumerus -37.3581 -21.915 -76.039
rradius 25.6547
rwrist 4.27238
rhand -6.86755 -53.4026
rfingers 7.12502
rthumb 18.9982 277.505
lclavicle 9.54166e-015 1.74931e-014
lhumerus -32.7421 13.9295 77.7875
lradius 12.836
lwrist -17.7395
lhand -20.649 -10.9868
lfingers 7.12502
lthumb 5.71323 18.9162
rfemur -21.3255 7.98259 17.8964
rtibia 11.533
rfoot -24.3139 -8.56678
rtoes -17.4644
lfemur -22.2432 -10.6985 -20.7535
ltibia 12.3177
lfoot -12.1604 1.30604
ltoes -32.1539
465
root 8.93828 16.2048 23.0014 -153.588 -0.463271 178.063
lowerback -31.4866 -1.83909 -5.61503
upperback -2.69044 -1.43687 -0.284587
thorax 13.4652 -1.37822 2.04985
lowerneck 1.99824 -3.54521 -3.0202
upperneck -12.1352 -3.69925 6.73208
head -4.16714 -1.76305 2.96112
rclavicle -4.79568e-015 2.90226e-014
rhumerus -37.3195 -21.7628 -76.1533
rradius 25.7465
rwrist 4.10303
rhand -6.94849 -53.5962
rfingers 7.12502
rthumb 18.9204 277.304
lclavicle -4.79568e-015 2.90226e-014
lhumerus -32.5597 13.6411 77.967
lradius 12.9376
lwrist -17.4785
lhand -20.4573 -11.4082
lfingers 7.12502
lthumb 5.89834 18.4897
rfemur -21.2711 8.03309 17.9159
rtibia 11.4973
rfoot -24.2356 -8.53221
rtoes -17.3998
lfemur -22.1761 -10.7009 -20.7245
ltibia 12.2698
lfoot -12.2185 1.28152
ltoes -31.7585
466
root 8.94062 16.2038 23.0049 -153.528 -0.509824 178.04
lowerback -31.4832 -1.85217 -5.64309
upperback -2.71546 -1.44944 -0.28965
thorax 13.4357 -1.38635 2.05442
lowerneck 1.95117 -3.55583 -3.0232
upperneck -12.0215 -3.72276 6.75034
head -4.11533 -1.77702 2.9635
rclavicle -1.82633e-014 -1.51076e-014
rhumerus -37.2567 -21.7442 -76.1752
rradius 25.6725
rwrist 4.14562
rhand -7.16071 -53.5998
rfingers 7.12502
rthumb 18.7163 277.281
lclavicle -1.82633e-014 -1.51076e-014
lhumerus -32.4017 13.5912 78.0393
lradius 12.9683
lwrist -17.5916
lhand -20.4998 -11.6619
lfingers 7.12502
lthumb 5.85729 18.2371
rfemur -21.3779 8.03439 17.902
rtibia 11.58
rfoot -24.2482 -8.53269
rtoes -17.331
lfemur -22.2737 -10.6505 -20.7222
ltibia 12.2867
lfoot -12.2603 1.14555
ltoes -31.8592
